<?xml version="1.0" encoding="UTF-8"?>
<svg id="_レイヤー_2" xmlns="http://www.w3.org/2000/svg" viewBox="0 0 105.96 75.21"><defs><style>.cls-1{fill:#ffffff;}</style></defs><g id="_レイヤー_7"><path class="cls-1" d="m85,40.47c.4-.03.8-.14,1.21-.28-.4.09-.8.19-1.21.28Z"/><path class="cls-1" d="m81.24,52.12c.14-.02.27-.04.41-.07-.14.02-.28.04-.41.07Z"/><path class="cls-1" d="m86.2,40.19c.56-.13,1.12-.25,1.67-.4-.54,0-1.1.21-1.67.4Z"/><path class="cls-1" d="m81.65,52.06c.85-.15,1.71-.27,2.6-.36-.74.06-1.64.2-2.6.36Z"/><path class="cls-1" d="m84.83,44.66c-.25.14-.49.28-.71.44.19-.1.38-.19.59-.34.04-.04.08-.07.12-.1Z"/><path class="cls-1" d="m84.83,44.66c1.77-.97,4.24-1.45,6.06-2.46-1.03-.15-4.36.86-6.06,2.46Z"/><path class="cls-1" d="m47.03,2.41c-3.02.76-4.97,4.82-7.23,7.23L47.03,0c1.36.45.15,1.51,0,2.41Z"/><path class="cls-1" d="m49.89,15.52c-.45.15-.6-.45-1.05-.75l8.29-9.35.45.3,5.42-4.67c-4.22,5.27-9.65,8.89-13.11,14.47Z"/><path class="cls-1" d="m42.05,1.81l-1.81,2.86,1.81-2.86Z"/><path class="cls-1" d="m35.87,6.48l-1.06,2.56,1.06-2.56Z"/><path class="cls-1" d="m23.96,25.92c1.96-4.67,5.28-13.26,9.65-19.14l-9.65,19.14Z"/><polygon class="cls-1" points="59.69 14.02 66.62 6.78 61.5 12.66 59.69 14.02"/><polygon class="cls-1" points="36.17 9.65 37.23 8.29 37.23 8.59 36.17 9.65"/><path class="cls-1" d="m25.02,17.63l.3-.3-4.37,11.15c-1.21-2.56,2.26-4.82,2.26-7.54l2.56-11.31c.15,2.11-2.11,5.88-.75,7.99Z"/><path class="cls-1" d="m70.99,10.85l-1.81,2.11,1.81-2.11Z"/><path class="cls-1" d="m31.5,15.07c-.6-1.06,1.05-2.71,1.81-3.92,0,1.51-1.21,2.56-1.81,3.92Z"/><path class="cls-1" d="m34.82,12.21l-.45,1.81.45-1.81Z"/><path class="cls-1" d="m21.7,15.82l-2.86,9.04,2.86-9.04Z"/><path class="cls-1" d="m24.57,30.29c1.21-4.52,3.62-8.44,5.43-12.66l-5.43,12.66Z"/><polygon class="cls-1" points="13.11 36.17 15.98 22.31 16.73 24.11 13.11 36.17"/><path class="cls-1" d="m55.01,22.31c-.75.45-1.96,2.86-3.62,2.56.6-1.36,2.11-2.41,3.62-2.56Z"/><path class="cls-1" d="m47.03,25.92l-1.06,1.21,1.06-1.21Z"/><path class="cls-1" d="m74.15,27.43l-10.85,7.99,10.85-7.99Z"/><polygon class="cls-1" points="66.17 29.99 66.92 29.24 67.67 29.24 66.17 29.99"/><path class="cls-1" d="m79.58,34.36c1.51-1.66,3.77-1.96,4.67-3.62-2.86.15-6.03,2.11-9.04,3.62,2.71-.91,6.93-5.88,10.55-4.07l-6.18,4.07Z"/><path class="cls-1" d="m74.91,30.75l-2.11,1.36,2.11-1.36Z"/><path class="cls-1" d="m11.61,31.05l-.75,3.32.75-3.32Z"/><path class="cls-1" d="m91.18,32.1l-9.34,4.67,9.34-4.67Z"/><path class="cls-1" d="m55.01,42.65c.15-.45-.15-.6-.3-.75h-.45l4.67-3.62c-.45,1.06-1.66.6-1.81,1.81,3.61-1.05,7.08-4.52,10.85-5.73l3.32-1.81-16.28,10.1Z"/><path class="cls-1" d="m105.96,34.36c-.6.15-.9.9-1.81.6-.6-.75,1.21-1.51,1.81-.6Z"/><path class="cls-1" d="m57.12,34.36l-2.11,2.11,2.11-2.11Z"/><path class="cls-1" d="m86.06,38.28c-2.26,1.21-5.13,3.32-7.53,2.56-.15-.9.75-.45,1.05-1.05-1.21.15-2.56,1.81-3.92.6-.15-.3.15-.45.3-.6l-4.67,2.11c-2.26-2.56,2.41-2.41,2.86-4.37-2.86,1.81-5.57,5.43-9.34,4.07-1.36,3.62-4.37.15-6.18,2.86-1.66-3.32-3.31,2.56-5.12,0-1.51.91-1.66,3.02-3.62,3.17-.3-.45-.91-.75-.6-1.36l-2.56,2.56c-.15-1.66-4.22.3-2.56-2.26l-1.51-.75c3.32-6.33,11.76-9.8,14.17-15.52l-9.04,6.48c-4.37-2.26-4.82,5.88-9.04,4.07,4.52-4.22,9.35-9.19,14.77-11.91,0-1.66,1.2-2.56,2.26-3.62-4.97,2.11-7.99,9.04-14.17,10.85.9,2.11-2.26,2.41-3.17,4.22-1.51.75-3.17,3.17-4.82,1.51l2.56-2.56c-.91-1.96,3.17-1.81,2.26-4.37l11.16-8.29c-2.56,1.36-5.28,3.77-7.99,4.07.45-1.21,1.66-1.81,2.56-2.56-.75.3-1.21,1.21-1.81,0,.75-1.36,1.96-2.56,3.32-3.32h-1.51c.6-3.16,4.52-5.42,6.18-7.53-.75.75-1.81,1.81-2.56,1.05v-.3l-3.32,3.16-.6-.75c0-.3-.15-.9.3-1.05l-1.81-1.81-.3.45-2.26-2.26,5.88-9.34-.45-1.06-11.15,16.88c-1.81.15-2.86,2.71-4.37,2.26l-.3,2.56c-1.66.6-1.66,3.16-3.62,4.22-2.11-1.81-1.81,1.81-3.32,2.56l-.75-.75c-3.32,2.11-2.11,9.35-6.78,9.5v1.05c-.6,1.96-2.11,5.43-4.07,5.12l1.81,2.41-.75.75c-6.93.6-.45-6.18-1.36-7.99-.45.3-.6.91-1.06.75-.75-.3-.3-1.21-.45-1.81-1.36,5.12-1.81,11.61-1.06,16.73,1.06,6.03-5.73,9.65-7.99,14.77.6.6,1.81.3,2.56.3,3.92-4.07,6.48-13.11,14.17-11.15,4.22-1.2,8.14-5.12,12.66-3.62.9,1.05-.3,2.41-.75,3.31-6.63,3.62-13.87,6.93-19.9,11.16l.75.75c6.48-3.77,13.11-7.69,20.2-10.1,2.41,2.86,6.63,1.36,9.35,3.16,1.66-2.56,5.58-.9,8.44-1.35-1.36-1.21-4.52.9-4.37-1.81,1.36-.9,3.17-1.66,4.67-.75-.75-1.51,1.51-2.26,2.86-1.81-.3-.45-.91-.6-.75-1.05.9-1.35,2.26-1.66,3.62-1.51l-.3-1.05c2.41-2.56,7.39.15,9.04-3.32,6.81.26,12.48-2.32,18.99-3.49-3.69.62-8.46,1.55-11.46.63v-.3c.75-.9,1.51-1.36,2.56-1.21.45-2.56,3.77-.9,5.43-1.81l-.75-.6c1.35-2.26,4.07-1.21,5.88-2.26.25-.6.68-1.07,1.22-1.47-2.34,1.25-3.7-.67-4.53-2.9,1.68-.89,3.56-1.32,5.42-1.73-.46.03-.91-.04-1.35-.38.3-1.05,2.56-1.51,2.41-1.81Zm-34.97-3.32c.45.9-1.81,2.26-2.56,3.32h-.75l3.32-3.32Zm-6.18,4.37c-.91,1.36-2.41,3.17-4.07,3.62.9-1.36,1.66-4.07,4.07-3.62Zm-22.46,20.35c.15-.75,1.06-1.21,1.51-1.81-.6-2.11,2.86-2.71,4.22-4.07.3-1.81,2.41-1.96,3.32-3.62-1.21-.75-2.56,1.96-3.62,1.06,3.77-3.17,6.63-7.54,11.61-9.35,0,2.41-3.32,4.82-5.43,6.18l1.06.75c-3.01,4.97-6.03,10.55-12.66,10.85Zm13.72-5.88c-.75.3-1.21,1.21-1.81,0l2.86-3.92c-.15-.6-.91-.3-1.36-.45.45-1.36,1.21-2.41,2.56-3.62,2.71,1.81,2.86-2.26,4.97-3.17-1.66,3.62-5.28,7.24-7.23,11.15Zm5.12-4.37h-1.06c.15-.9.75-1.51,1.81-1.81.75.6-.75,1.21-.75,1.81Z"/><polygon class="cls-1" points="100.53 35.72 101.29 34.97 102.04 34.97 100.53 35.72"/><path class="cls-1" d="m53.2,37.53l-2.86,2.56,2.86-2.56Z"/><path class="cls-1" d="m78.83,37.98l-1.36,1.06,1.36-1.06Z"/><path class="cls-1" d="m12.36,40.09l-.45.3v-1.81c.75,0,.3,1.06.45,1.51Z"/><path class="cls-1" d="m16.28,39.79v.6h-.75v-1.06c.45,0,.6.15.75.45Z"/><path class="cls-1" d="m97.37,39.34c-.3.91-1.96,1.36-2.56,1.06.75-.3,1.51-1.06,2.56-1.06Z"/><path class="cls-1" d="m105.65,40.84c-1.2.91-3.01.76-4.37,1.81l1.05,1.05-8.29,1.81c.6.15.75-.45,1.05-.75l-.3-.3c3.01-1.81,7.54-1.66,10.85-3.62Z"/><path class="cls-1" d="m48.08,42.2c1.35,1.36,1.81-.9,3.31-.3l-3.62,3.62c.45-.75,1.66-1.06,1.51-2.11-1.2-.75-2.26.91-3.32,1.36l2.56-3.16c-.15.15-.45.3-.45.6Z"/><path class="cls-1" d="m94.8,48.38c-3.17.3-5.13,3.62-8.74,2.86,2.11-2.86,5.88-1.81,8.74-2.86Z"/><path class="cls-1" d="m84.71,56.07c-.9.91-2.71,1.21-4.37,1.06,1.05-1.51,3.01-.15,4.37-1.06Z"/><path class="cls-1" d="m57.58,67.52l-5.43-.3c1.66-.45,4.07-.75,5.43.3Z"/></g></svg>
